<svg width="36" height="36" viewBox="0 0 36 36" fill="none" xmlns="http://www.w3.org/2000/svg">
<g id="Messanger">
<g id="Group 3375">
<g id="Group">
<path id="Vector" d="M28.9432 11.8998C28.8441 11.4002 28.6226 10.9431 28.3132 10.5654C28.248 10.4831 28.1799 10.4095 28.106 10.3358C27.5579 9.78499 26.7887 9.44141 25.9484 9.44141H10.0517C9.21135 9.44141 8.44487 9.78499 7.89422 10.3358C7.82053 10.4095 7.75238 10.4831 7.68699 10.5654C7.37748 10.943 7.15598 11.4002 7.05955 11.8998C7.01994 12.0926 7 12.2918 7 12.4933V23.658C7 24.0863 7.09084 24.498 7.25283 24.8698C7.40309 25.2248 7.62464 25.5459 7.89418 25.8152C7.9625 25.8833 8.03035 25.946 8.10439 26.0083C8.6323 26.4455 9.31374 26.7095 10.0517 26.7095H25.9484C26.6866 26.7095 27.371 26.4455 27.8958 26.0055C27.9697 25.946 28.0378 25.8833 28.106 25.8152C28.3754 25.5459 28.5969 25.2248 28.7503 24.8698V24.8671C28.9122 24.4953 29 24.0863 29 23.658V12.4933C29 12.2918 28.9804 12.0926 28.9432 11.8998ZM8.99844 11.4398C9.27107 11.1675 9.63721 11.0026 10.0517 11.0026H25.9484C26.3628 11.0026 26.7322 11.1675 27.0016 11.4398C27.0498 11.4884 27.0952 11.5424 27.1353 11.5961L18.8034 18.8576C18.5736 19.059 18.2897 19.1585 18 19.1585C17.7132 19.1585 17.4296 19.059 17.1967 18.8576L8.86794 11.593C8.90481 11.5393 8.95023 11.4884 8.99844 11.4398ZM8.56123 23.658V13.2086L14.5908 18.4686L8.56428 23.7231C8.56123 23.7031 8.56123 23.6807 8.56123 23.658ZM25.9484 25.148H10.0517C9.7818 25.148 9.52927 25.0771 9.31374 24.9524L15.6722 19.4112L16.2658 19.9276C16.7626 20.3593 17.3842 20.5779 18 20.5779C18.619 20.5779 19.2406 20.3593 19.7373 19.9276L20.3307 19.4112L26.6866 24.9524C26.4708 25.0771 26.2182 25.148 25.9484 25.148ZM27.4388 23.658C27.4388 23.6807 27.4388 23.7031 27.4359 23.7231L21.4094 18.4717L27.4388 13.2114V23.658Z" fill="white"/>
</g>
<circle id="Ellipse 48" cx="18" cy="18" r="15.5" stroke="white"/>
</g>
</g>
</svg>
