<?xml version="1.0" encoding="utf-8"?>
<!-- Generator: Adobe Illustrator 28.0.0, SVG Export Plug-In . SVG Version: 6.00 Build 0)  -->
<svg version="1.1" id="Layer_1" xmlns="http://www.w3.org/2000/svg" xmlns:xlink="http://www.w3.org/1999/xlink" x="0px" y="0px"
	 viewBox="0 0 36 36" style="enable-background:new 0 0 36 36;" xml:space="preserve">
<style type="text/css">
	.st0{fill:none;stroke:#FFFFFF;stroke-miterlimit:10;}
	.st1{fill:#FFFFFF;}
</style>
<path class="st0" d="M33.5,18c0,8.6-6.9,15.5-15.5,15.5C9.4,33.5,2.5,26.6,2.5,18C2.5,9.4,9.4,2.5,18,2.5C26.6,2.5,33.5,9.4,33.5,18
	z"/>
<g id="XMLID_834_">
	<path id="XMLID_835_" class="st1" d="M14,18.6h1.9v7.7c0,0.2,0.1,0.3,0.3,0.3h3.2c0.2,0,0.3-0.1,0.3-0.3v-7.6h2.1
		c0.1,0,0.3-0.1,0.3-0.2l0.3-2.8c0-0.1,0-0.2-0.1-0.2c-0.1-0.1-0.1-0.1-0.2-0.1h-2.5v-1.8c0-0.5,0.3-0.8,0.9-0.8c0.1,0,1.6,0,1.6,0
		c0.2,0,0.3-0.1,0.3-0.3V9.8c0-0.2-0.1-0.3-0.3-0.3h-2.2c0,0-0.1,0-0.1,0c-0.4,0-1.7,0.1-2.8,1.1c-1.2,1.1-1,2.4-1,2.6v2.1h-2
		c-0.2,0-0.3,0.1-0.3,0.3v2.8C13.7,18.4,13.8,18.6,14,18.6z"/>
</g>
</svg>
