<svg width="73" height="36" viewBox="0 0 73 36" fill="none" xmlns="http://www.w3.org/2000/svg">
<g clip-path="url(#clip0_581_1588)">
<path d="M64.9956 0H7.52867C3.3707 0 0 3.3707 0 7.52867V28.4713C0 32.6293 3.3707 36 7.52867 36H64.9956C69.1535 36 72.5243 32.6293 72.5243 28.4713V7.52867C72.5243 3.3707 69.1535 0 64.9956 0Z" fill="url(#paint0_linear_581_1588)"/>
<path d="M5.3232 8.22705H10.5355V10.8483H8.41583V12.2573H10.3944V14.7929H8.41583V17.9838H5.32068V8.22705H5.3232ZM15.1631 17.9838H12.068V8.22705H15.1631V17.9838Z" fill="white"/>
<path d="M16.1387 8.22705H23.191V10.8761H21.2124V17.9838H18.1172V10.8761H16.1387V8.22705Z" fill="white"/>
<path d="M28.0856 14.1952L27.5992 14.4976C27.1783 13.9381 26.6036 13.6583 25.8752 13.6583C25.2929 13.6583 24.809 13.8448 24.4259 14.2204C24.0403 14.5959 23.8487 15.0496 23.8487 15.584C23.8487 15.9318 23.9369 16.2595 24.1134 16.567C24.2898 16.8745 24.5343 17.1114 24.8418 17.2828C25.1493 17.4516 25.4971 17.5373 25.8802 17.5373C26.5834 17.5373 27.1556 17.2576 27.5992 16.698L28.0856 17.0181C27.8563 17.3609 27.5513 17.6281 27.1657 17.8196C26.78 18.0112 26.3415 18.1044 25.85 18.1044C25.0938 18.1044 24.4687 17.865 23.9697 17.3836C23.4706 16.9022 23.2236 16.3199 23.2236 15.6319C23.2236 15.1681 23.3396 14.7396 23.574 14.3414C23.8084 13.9431 24.126 13.6356 24.5343 13.4113C24.9426 13.187 25.3963 13.0786 25.9004 13.0786C26.2154 13.0786 26.5229 13.1265 26.8153 13.2248C27.1077 13.3231 27.3597 13.4466 27.5639 13.6029C27.7681 13.7591 27.942 13.9557 28.0856 14.1952Z" fill="white"/>
<path d="M33.283 16.3984L33.8022 16.6706C33.6333 17.0033 33.4367 17.273 33.2124 17.4797C32.9881 17.6864 32.7385 17.8401 32.4613 17.9485C32.1815 18.0544 31.8665 18.1098 31.5161 18.1098C30.7373 18.1098 30.1273 17.8553 29.6862 17.3436C29.2452 16.8319 29.0259 16.2547 29.0259 15.6095C29.0259 15.0021 29.2124 14.4627 29.5854 13.9888C30.0568 13.3864 30.6894 13.084 31.4808 13.084C32.2723 13.084 32.9452 13.394 33.4342 14.0115C33.7795 14.4476 33.9559 14.992 33.961 15.6448H29.661C29.6736 16.1993 29.8501 16.6555 30.1929 17.0109C30.5356 17.3663 30.9591 17.5427 31.4632 17.5427C31.7077 17.5427 31.9421 17.4999 32.174 17.4167C32.4033 17.331 32.5999 17.2201 32.7612 17.0789C32.9225 16.9378 33.0965 16.7135 33.2855 16.4009L33.283 16.3984ZM33.283 15.1104C33.1998 14.7828 33.0813 14.5207 32.9251 14.3241C32.7688 14.1275 32.5596 13.9687 32.3025 13.8502C32.0454 13.7292 31.7732 13.6713 31.4884 13.6713C31.0196 13.6713 30.6163 13.8225 30.2786 14.1249C30.0315 14.3442 29.845 14.6744 29.719 15.113H33.283V15.1104Z" fill="white"/>
<path d="M35.0422 13.2021H35.6698V13.9003C35.8564 13.6256 36.0555 13.4189 36.2621 13.2828C36.4688 13.1467 36.6856 13.0786 36.9124 13.0786C37.0813 13.0786 37.2628 13.1315 37.4569 13.2399L37.1368 13.7591C37.0082 13.7037 36.8998 13.676 36.8116 13.676C36.6075 13.676 36.4083 13.7591 36.2193 13.928C36.0303 14.0969 35.8841 14.359 35.7833 14.7119C35.7076 14.9841 35.6698 15.5361 35.6698 16.3628V17.9784H35.0422V13.1996V13.2021Z" fill="white"/>
<path d="M38.8683 11.4277H39.4832V13.2022H40.4587V13.734H39.4832V17.981H38.8683V13.734H38.0289V13.2022H38.8683V11.4277Z" fill="white"/>
<path d="M14.7851 30.3744C14.7927 30.45 14.8103 30.5307 14.833 30.6113C14.8582 30.6945 14.896 30.7676 14.9464 30.8357C14.9994 30.9037 15.0674 30.9592 15.1506 31.0045C15.2363 31.0499 15.3422 31.0726 15.4682 31.0726C15.5715 31.0726 15.7127 31.0474 15.8916 30.9995L15.9244 31.1381C15.8362 31.1785 15.748 31.2137 15.6572 31.249C15.5665 31.2818 15.4732 31.2969 15.3724 31.2919C15.2237 31.2919 15.0851 31.2667 14.959 31.2163C14.833 31.1659 14.7246 31.0953 14.6314 31.002C14.5381 30.9113 14.465 30.8004 14.4096 30.6744C14.3541 30.5483 14.3239 30.4072 14.3188 30.256C14.3188 30.1148 14.3441 29.9812 14.3945 29.8577C14.4449 29.7342 14.5154 29.6233 14.6087 29.5301C14.6994 29.4368 14.8078 29.3612 14.9338 29.3032C15.0573 29.2478 15.1935 29.215 15.3396 29.21C15.4959 29.2125 15.6371 29.2427 15.7631 29.2957C15.8891 29.3511 16 29.4267 16.0882 29.52C16.179 29.6158 16.247 29.7241 16.2949 29.8502C16.3428 29.9762 16.363 30.1073 16.3579 30.2459C16.3579 30.261 16.3579 30.2812 16.3579 30.3064C16.3579 30.3341 16.3579 30.3543 16.3579 30.3719H14.7826L14.7851 30.3744ZM15.1052 29.5099C15.0422 29.5477 14.9868 29.5981 14.9439 29.6586C14.9011 29.7191 14.8658 29.7897 14.8406 29.8678C14.8154 29.9459 14.7977 30.0291 14.7902 30.1123H15.8992C15.8765 29.8804 15.816 29.7141 15.7177 29.6082C15.6194 29.5049 15.4909 29.4519 15.3371 29.4519H15.3296C15.2439 29.4519 15.1708 29.4721 15.1078 29.5099" fill="white"/>
<path d="M17.2476 30.669C17.2703 30.7647 17.3031 30.8378 17.3484 30.8958C17.3938 30.9513 17.4492 30.9916 17.5173 31.0168C17.5854 31.042 17.6635 31.0521 17.7492 31.0496C17.8374 31.0521 17.9181 31.042 17.9912 31.0193C18.0642 30.9966 18.1273 30.9563 18.1802 30.9008C18.2331 30.8454 18.2734 30.7673 18.3012 30.6715C18.3289 30.5757 18.344 30.4572 18.344 30.3161V29.1768H18.8305V30.185C18.8305 30.5303 18.7397 30.8 18.5583 30.9991C18.3768 31.1983 18.1147 31.2966 17.7719 31.2966C17.5828 31.2966 17.4215 31.2714 17.2905 31.2184C17.1569 31.1655 17.051 31.0924 16.9678 30.9966C16.8847 30.9008 16.8242 30.7849 16.7864 30.6463C16.7486 30.5102 16.7284 30.3539 16.7284 30.1825V29.1743H17.2148V30.3136C17.2148 30.4547 17.2249 30.5732 17.2476 30.6664" fill="white"/>
<path d="M20.5293 29.1821C20.5621 29.1821 20.5949 29.1821 20.6276 29.1872V29.4065C20.5949 29.4014 20.5596 29.3964 20.5218 29.3964C20.484 29.3964 20.4487 29.3964 20.4159 29.3964C20.3277 29.3938 20.242 29.4039 20.1538 29.4291C20.0656 29.4543 19.9874 29.4921 19.9169 29.5501C19.8463 29.6056 19.7883 29.6812 19.7455 29.777C19.7026 29.8727 19.6799 29.9887 19.6799 30.1298V31.3019H19.1935V30.2987C19.1935 29.9534 19.2993 29.6837 19.5136 29.4846C19.7278 29.2855 20.0353 29.1872 20.4386 29.1872H20.5319L20.5293 29.1821Z" fill="white"/>
<path d="M22.4348 29.2729C22.5633 29.3334 22.6717 29.4115 22.7574 29.5073C22.8431 29.6056 22.9061 29.7165 22.9489 29.845C22.9918 29.971 23.0145 30.1046 23.022 30.2433C23.017 30.3869 22.9943 30.523 22.9515 30.6516C22.9111 30.7801 22.8481 30.891 22.7624 30.9868C22.6767 31.0826 22.5709 31.1582 22.4398 31.2136C22.3087 31.2691 22.1499 31.2993 21.9634 31.2993C21.7769 31.2993 21.603 31.2716 21.4669 31.2136C21.3308 31.1582 21.2174 31.08 21.1317 30.9818C21.0435 30.8835 20.9779 30.7726 20.9376 30.644C20.8947 30.518 20.8721 30.3819 20.8645 30.2407C20.867 30.1021 20.8897 29.971 20.9326 29.8425C20.9754 29.7165 21.0409 29.603 21.1266 29.5047C21.2148 29.4065 21.3283 29.3283 21.4644 29.2703C21.603 29.2099 21.7694 29.1821 21.9634 29.1821C22.1575 29.1821 22.3087 29.2124 22.4373 29.2703M21.3913 30.6642C21.419 30.7599 21.4593 30.833 21.5123 30.891C21.5652 30.9465 21.6282 30.9868 21.7013 31.012C21.7744 31.0372 21.855 31.0473 21.9433 31.0448C22.0315 31.0473 22.1121 31.0372 22.1852 31.0145C22.2583 30.9918 22.3213 30.9515 22.3743 30.8961C22.4272 30.8406 22.4675 30.7625 22.4953 30.6667C22.523 30.5709 22.5381 30.4525 22.5381 30.3113V30.1626C22.5381 30.0214 22.523 29.903 22.4953 29.8072C22.4675 29.7114 22.4272 29.6358 22.3743 29.5778C22.3213 29.5224 22.2583 29.4821 22.1852 29.4594C22.1121 29.4367 22.0315 29.4266 21.9433 29.4291C21.855 29.4266 21.7744 29.4367 21.7013 29.4619C21.6282 29.4871 21.5652 29.5249 21.5123 29.5829C21.4593 29.6383 21.419 29.7139 21.3913 29.8097C21.3636 29.9055 21.3484 30.0214 21.3484 30.1626V30.3113C21.3484 30.4525 21.3636 30.5709 21.3913 30.6642Z" fill="white"/>
<path d="M23.8639 32.1537H23.3774V30.2432C23.3825 30.0793 23.4077 29.9332 23.4505 29.8021C23.4934 29.671 23.5564 29.5626 23.6421 29.4694C23.7278 29.3786 23.8387 29.3081 23.9773 29.2577C24.1134 29.2073 24.2798 29.1846 24.4738 29.1846C24.6679 29.1846 24.8192 29.2098 24.9477 29.2577C25.0762 29.3081 25.1846 29.3786 25.2703 29.4694C25.356 29.5601 25.419 29.671 25.4619 29.8021C25.5047 29.9332 25.5274 30.0793 25.535 30.2432C25.5299 30.407 25.5047 30.5532 25.4619 30.6843C25.419 30.8153 25.356 30.9237 25.2703 31.017C25.1846 31.1077 25.0788 31.1783 24.9477 31.2262C24.8166 31.274 24.6604 31.2993 24.4738 31.2993C24.3478 31.2993 24.2344 31.2892 24.1361 31.269C24.0378 31.2488 23.9496 31.2186 23.8664 31.1808L23.8614 32.1537H23.8639ZM23.9017 30.6691C23.9294 30.7649 23.9698 30.838 24.0227 30.896C24.0756 30.9514 24.1386 30.9918 24.2117 31.017C24.2848 31.0422 24.3655 31.0522 24.4537 31.0497C24.5419 31.0522 24.6226 31.0422 24.6957 31.0195C24.7687 30.9968 24.8318 30.9565 24.8847 30.901C24.9376 30.8456 24.9779 30.7674 25.0057 30.6717C25.0334 30.5759 25.0485 30.4574 25.0485 30.3163V30.1676C25.0485 30.0264 25.0334 29.9079 25.0057 29.8122C24.9779 29.7164 24.9376 29.6408 24.8847 29.5828C24.8318 29.5274 24.7687 29.487 24.6957 29.4643C24.6226 29.4417 24.5419 29.4316 24.4537 29.4341C24.3655 29.4316 24.2848 29.4417 24.2117 29.4669C24.1386 29.4921 24.0756 29.5299 24.0227 29.5878C23.9698 29.6433 23.9294 29.7189 23.9017 29.8147C23.874 29.9105 23.8589 30.0264 23.8589 30.1676V30.3163C23.8589 30.4574 23.874 30.5759 23.9017 30.6691Z" fill="white"/>
<path d="M26.3541 30.3744C26.3617 30.45 26.3793 30.5307 26.402 30.6113C26.4247 30.6945 26.465 30.7676 26.5154 30.8357C26.5683 30.9037 26.6364 30.9592 26.7196 31.0045C26.8053 31.0499 26.9111 31.0726 27.0372 31.0726C27.1405 31.0726 27.2816 31.0474 27.4606 30.9995L27.4934 31.1381C27.4051 31.1785 27.3169 31.2137 27.2262 31.249C27.1355 31.2818 27.0422 31.2969 26.9414 31.2919C26.7927 31.2919 26.654 31.2667 26.528 31.2163C26.402 31.1659 26.2936 31.0953 26.2004 31.002C26.1071 30.9113 26.034 30.8004 25.9786 30.6744C25.9231 30.5483 25.8929 30.4072 25.8878 30.256C25.8878 30.1148 25.913 29.9812 25.9634 29.8577C26.0138 29.7342 26.0844 29.6233 26.1777 29.5301C26.2684 29.4368 26.3768 29.3612 26.5028 29.3032C26.6263 29.2478 26.7624 29.215 26.9086 29.21C27.0649 29.2125 27.206 29.2427 27.3321 29.2957C27.4581 29.3511 27.569 29.4267 27.6572 29.52C27.7479 29.6158 27.816 29.7241 27.8639 29.8502C27.9118 29.9762 27.9319 30.1073 27.9269 30.2459C27.9269 30.261 27.9269 30.2812 27.9269 30.3064C27.9269 30.3341 27.9269 30.3543 27.9269 30.3719H26.3516L26.3541 30.3744ZM26.6742 29.5099C26.6112 29.5477 26.5557 29.5981 26.5129 29.6586C26.47 29.7191 26.4348 29.7897 26.4096 29.8678C26.3844 29.9459 26.3667 30.0291 26.3591 30.1123H27.4682C27.4455 29.8804 27.385 29.7141 27.2867 29.6082C27.1884 29.5049 27.0598 29.4519 26.9061 29.4519H26.8985C26.8128 29.4519 26.7397 29.4721 26.6767 29.5099" fill="white"/>
<path d="M30.8229 31.2967H30.3314V31.2841L30.3364 30.8607C30.2886 30.9489 30.2407 31.0195 30.1953 31.0775C30.1499 31.1329 30.102 31.1783 30.0541 31.211C30.0063 31.2438 29.9533 31.2665 29.9004 31.2791C29.8449 31.2917 29.787 31.2993 29.724 31.2993C29.5374 31.2993 29.3787 31.274 29.2501 31.2262C29.119 31.1783 29.0132 31.1077 28.9275 31.017C28.8418 30.9262 28.7788 30.8153 28.7359 30.6843C28.6931 30.5532 28.6704 30.407 28.6628 30.2432C28.6679 30.0793 28.6931 29.9332 28.7359 29.8021C28.7788 29.6735 28.8418 29.5626 28.9275 29.4694C29.0132 29.3786 29.119 29.3081 29.2501 29.2577C29.3812 29.2073 29.5374 29.1846 29.724 29.1846C29.9105 29.1846 30.0844 29.2098 30.2205 29.2577C30.3566 29.3081 30.47 29.3786 30.5582 29.4694C30.6465 29.5601 30.7095 29.671 30.7523 29.8021C30.7952 29.9332 30.8179 30.0793 30.8254 30.2432V31.2967H30.8229ZM30.3364 30.1676C30.3364 30.0264 30.3213 29.9079 30.2936 29.8147C30.2659 29.7214 30.2255 29.6458 30.1726 29.5878C30.1197 29.5324 30.0567 29.4921 29.9836 29.4669C29.9105 29.4417 29.8298 29.4316 29.7416 29.4341C29.6534 29.4316 29.5727 29.4417 29.4996 29.4643C29.4265 29.487 29.3635 29.5274 29.3106 29.5828C29.2577 29.6383 29.2173 29.7164 29.1896 29.8122C29.1619 29.9079 29.1468 30.0264 29.1468 30.1676V30.3163C29.1468 30.4574 29.1619 30.5759 29.1896 30.6717C29.2173 30.7674 29.2577 30.843 29.3106 30.901C29.3635 30.9565 29.4265 30.9968 29.4996 31.0195C29.5727 31.0422 29.6534 31.0522 29.7416 31.0497C29.9206 31.0548 30.0617 30.9817 30.1701 30.8304C30.2785 30.6767 30.3339 30.4599 30.3339 30.1776V30.1701L30.3364 30.1676Z" fill="white"/>
<path d="M32.0126 29.5578C31.9294 29.5956 31.8563 29.6485 31.7933 29.7166C31.7303 29.7846 31.6849 29.8754 31.6546 29.9863C31.6244 30.0972 31.6194 30.2308 31.6395 30.3896C31.6496 30.4853 31.695 30.5862 31.7681 30.687C31.8437 30.7903 31.9445 30.8785 32.073 30.9491C32.2016 31.0222 32.3553 31.0676 32.5368 31.0852C32.7183 31.1029 32.9199 31.0751 33.1468 30.9995L33.1543 31.1356C33.0938 31.1608 33.0384 31.186 32.9855 31.2087C32.9325 31.2339 32.872 31.2541 32.804 31.2743C32.7359 31.2944 32.6553 31.3095 32.5645 31.3221C32.4738 31.3347 32.3604 31.3423 32.2293 31.3448C32.0781 31.3473 31.9369 31.3221 31.8109 31.2717C31.6849 31.2188 31.574 31.1457 31.4807 31.055C31.3875 30.9617 31.3144 30.8508 31.264 30.7197C31.2136 30.5912 31.1884 30.4501 31.1884 30.2963C31.1884 30.1148 31.2236 29.951 31.2967 29.7998C31.3698 29.6511 31.4681 29.5276 31.5942 29.4293C31.7202 29.331 31.8714 29.2654 32.0428 29.2276C32.2142 29.1898 32.4032 29.1974 32.6049 29.2453C32.7637 29.2957 32.8821 29.3587 32.9653 29.4368C33.0485 29.5124 33.1039 29.583 33.1342 29.6485C33.1392 29.6586 33.1442 29.6637 33.1442 29.6637C33.1442 29.6637 33.1367 29.6637 33.119 29.6712C33.1014 29.6788 33.0712 29.6964 33.0308 29.7216C32.9905 29.7494 32.93 29.7947 32.8519 29.8628C32.8115 29.7973 32.7763 29.7418 32.741 29.6939C32.7082 29.646 32.6679 29.6057 32.6275 29.5754C32.5847 29.5452 32.5368 29.5225 32.4788 29.5074C32.4234 29.4923 32.3528 29.4872 32.2722 29.4872C32.1814 29.4973 32.0957 29.5225 32.0126 29.5603" fill="white"/>
<path d="M34.7347 29.4216H34.2457V31.3019H33.7744V29.4216H33.2804V29.1721H33.7744V28.1235H34.2457V29.1721H34.7347V29.4216Z" fill="white"/>
<path d="M35.0776 28.2192C35.138 28.1562 35.2111 28.126 35.2994 28.126C35.3876 28.126 35.4607 28.1562 35.5237 28.2192C35.5867 28.2822 35.6169 28.3553 35.6169 28.4436C35.6169 28.4864 35.6069 28.5267 35.5892 28.5645C35.5716 28.6023 35.5464 28.6376 35.5161 28.6654C35.4859 28.6956 35.4506 28.7183 35.4128 28.7359C35.375 28.7536 35.3372 28.7611 35.2994 28.7611C35.2111 28.7611 35.138 28.7309 35.0776 28.6679C35.0171 28.6049 34.9868 28.5318 34.9868 28.4436C34.9868 28.3553 35.0171 28.2822 35.0776 28.2192ZM35.5539 31.2917H35.0675V29.1669H35.5539V31.2917Z" fill="white"/>
<path d="M36.7687 31.3067L35.8613 29.1719H36.378L36.9376 30.6111L37.5475 29.1769H37.8601L36.9275 31.3067H36.7687Z" fill="white"/>
<path d="M38.4197 30.3744C38.4272 30.45 38.4449 30.5307 38.4675 30.6113C38.4902 30.6945 38.5306 30.7676 38.581 30.8357C38.6339 30.9037 38.702 30.9592 38.7851 31.0045C38.8708 31.0499 38.9767 31.0726 39.1027 31.0726C39.206 31.0726 39.3472 31.0474 39.5261 30.9995L39.5589 31.1381C39.4707 31.1785 39.3825 31.2137 39.2917 31.249C39.201 31.2818 39.1077 31.2969 39.0069 31.2919C38.8582 31.2919 38.7196 31.2667 38.5936 31.2163C38.4675 31.1659 38.3592 31.0953 38.2659 31.002C38.1727 30.9113 38.0996 30.8004 38.0441 30.6744C37.9887 30.5483 37.9584 30.4072 37.9534 30.256C37.9534 30.1148 37.9786 29.9812 38.029 29.8577C38.0794 29.7342 38.15 29.6233 38.2432 29.5301C38.334 29.4368 38.4423 29.3612 38.5684 29.3032C38.6919 29.2478 38.828 29.215 38.9742 29.21C39.1304 29.2125 39.2716 29.2427 39.3976 29.2957C39.5236 29.3511 39.6345 29.4267 39.7227 29.52C39.8135 29.6158 39.8815 29.7241 39.9294 29.8502C39.9773 29.9762 39.9975 30.1073 39.9924 30.2459C39.9924 30.261 39.9924 30.2812 39.9924 30.3064C39.9924 30.3341 39.9924 30.3543 39.9924 30.3719H38.4171L38.4197 30.3744ZM38.7398 29.5099C38.6767 29.5477 38.6213 29.5981 38.5784 29.6586C38.5356 29.7191 38.5003 29.7897 38.4751 29.8678C38.4499 29.9459 38.4323 30.0291 38.4247 30.1123H39.5337C39.511 29.8804 39.4505 29.7141 39.3522 29.6082C39.2539 29.5049 39.1254 29.4519 38.9716 29.4519H38.9641C38.8784 29.4519 38.8053 29.4721 38.7423 29.5099" fill="white"/>
<path d="M29.545 24.8442L25.9231 25.4567C25.7341 25.4894 25.6509 25.7137 25.7719 25.8599L26.8506 27.163C26.9262 27.1504 26.9968 27.1353 27.0623 27.1C27.2413 27.0017 27.3774 26.8454 27.5337 26.7194C27.7 26.5884 27.821 26.5178 27.8386 26.2859C27.8563 26.0616 27.758 26.0893 27.569 26.0439C27.4555 26.0162 26.7523 25.7969 26.7599 25.7188C26.7674 25.6381 27.3572 25.8347 27.4228 25.8473C27.7227 25.9078 28.068 25.7969 28.2949 26.0212C28.3075 26.0338 28.3276 26.0414 28.3478 26.0364C28.4814 26.0137 28.6452 26.0641 28.7183 26.0591C28.741 26.0591 28.7586 26.0414 28.7662 26.0212C28.809 25.9053 29.0082 25.4919 29.0485 25.4995C29.0964 25.5096 28.9703 25.9053 28.872 26.1372C28.8594 26.1674 28.8342 26.1901 28.804 26.1977C28.7183 26.2229 28.5797 26.2657 28.4864 26.2607C28.441 26.2582 28.4058 26.2935 28.4007 26.3388C28.378 26.5505 28.1714 26.6262 28.1235 26.8253C28.0932 26.9463 28.5519 27.158 28.5923 27.3344C28.5923 27.3395 28.5923 27.3445 28.5923 27.3495C28.5923 27.4655 28.3528 27.8713 28.2974 27.9872C28.2797 28.02 28.1109 28.3527 28.0479 28.2241C28.0327 28.1914 28.1613 27.9469 28.2167 27.7503C28.2671 27.5789 28.3856 27.3596 28.2092 27.2865C28.0126 27.2059 27.8991 27.216 27.7025 27.1756C27.4707 27.1277 27.2867 27.3319 27.08 27.3873C27.0699 27.3899 27.0598 27.3924 27.0497 27.3949L28.1184 28.6879C28.2394 28.8366 28.4763 28.7963 28.5444 28.6173L29.8248 25.1744C29.8928 24.9954 29.7391 24.8089 29.5501 24.8417L29.545 24.8442ZM28.562 25.7843C28.4612 25.8877 28.3075 25.9028 28.2243 25.8196C28.1411 25.7364 28.1512 25.5827 28.2545 25.4793C28.3553 25.376 28.5091 25.3609 28.5923 25.4441C28.678 25.5272 28.6654 25.681 28.562 25.7843Z" fill="white"/>
<path d="M26.286 27.5461C26.3843 27.5083 26.8481 27.4503 27.0447 27.3999L26.8506 27.1655C26.7296 27.1832 26.5986 27.1907 26.4851 27.2437C26.339 27.3117 25.6887 27.7049 25.7189 27.783C25.724 27.7931 25.7315 27.7982 25.7416 27.8007C25.8197 27.8158 26.0516 27.6797 26.0743 27.6646C26.1449 27.6217 26.2129 27.5764 26.2885 27.5461H26.286Z" fill="white"/>
<path d="M54.5886 31.6671H52.1765C52.1362 31.6671 52.1034 31.6344 52.1034 31.594V31.0042C52.1034 30.9639 52.1362 30.9312 52.1765 30.9312H54.5886C54.6289 30.9312 54.6617 30.9639 54.6617 31.0042V31.594C54.6617 31.6344 54.6289 31.6671 54.5886 31.6671Z" fill="white"/>
<path d="M54.5886 29.0182H52.1765C52.1362 29.0182 52.1034 28.9854 52.1034 28.9451V28.3553C52.1034 28.315 52.1362 28.2822 52.1765 28.2822H54.5886C54.6289 28.2822 54.6617 28.315 54.6617 28.3553V28.9451C54.6617 28.9854 54.6289 29.0182 54.5886 29.0182Z" fill="white"/>
<path d="M57.3887 29.5956C57.3887 29.1747 57.109 28.9705 56.7964 28.9705C56.4839 28.9705 56.2041 29.1495 56.2041 29.5704V31.5918C56.2041 31.6321 56.1714 31.6649 56.131 31.6649H55.4555C55.4152 31.6649 55.3824 31.6321 55.3824 31.5918V28.353C55.3824 28.3127 55.4152 28.2799 55.4555 28.2799H55.8664C55.9294 28.2799 55.9622 28.3001 55.9899 28.3278C56.0453 28.3757 56.1462 28.4967 56.1462 28.4967C56.2419 28.416 56.4738 28.2295 56.9073 28.2295C57.6332 28.2295 58.2129 28.7487 58.2129 29.5049V31.5893C58.2129 31.6296 58.1802 31.6624 58.1399 31.6624H57.4644C57.424 31.6624 57.3913 31.6296 57.3913 31.5893V29.5906L57.3887 29.5956Z" fill="white"/>
<path d="M52.852 32.9904H52.1765C52.1362 32.9904 52.1034 32.9576 52.1034 32.9173V32.3275C52.1034 32.2872 52.1362 32.2544 52.1765 32.2544H52.852C52.8923 32.2544 52.9251 32.2872 52.9251 32.3275V32.9173C52.9251 32.9576 52.8923 32.9904 52.852 32.9904Z" fill="white"/>
<path d="M52.852 27.6925H52.1765C52.1362 27.6925 52.1034 27.6598 52.1034 27.6194V27.0296C52.1034 26.9893 52.1362 26.9565 52.1765 26.9565H52.852C52.8923 26.9565 52.9251 26.9893 52.9251 27.0296V27.6194C52.9251 27.6598 52.8923 27.6925 52.852 27.6925Z" fill="white"/>
<path d="M53.5703 30.3414H52.1765C52.1362 30.3414 52.1034 30.3087 52.1034 30.2684V29.6786C52.1034 29.6382 52.1362 29.6055 52.1765 29.6055H53.5703C53.6106 29.6055 53.6434 29.6382 53.6434 29.6786V30.2684C53.6434 30.3087 53.6106 30.3414 53.5703 30.3414Z" fill="white"/>
<path d="M50.5633 29.5956C50.5633 29.1747 50.2835 28.9705 49.971 28.9705C49.6585 28.9705 49.3787 29.1495 49.3787 29.5704V31.5918C49.3787 31.6321 49.3459 31.6649 49.3056 31.6649H48.6301C48.5898 31.6649 48.557 31.6321 48.557 31.5918V28.353C48.557 28.3127 48.5898 28.2799 48.6301 28.2799H49.0409C49.104 28.2799 49.1367 28.3001 49.1644 28.3278C49.2199 28.3757 49.3207 28.4967 49.3207 28.4967C49.4165 28.416 49.6484 28.2295 50.0819 28.2295C50.8078 28.2295 51.3875 28.7487 51.3875 29.5049V31.5893C51.3875 31.6296 51.3547 31.6624 51.3144 31.6624H50.6389C50.5986 31.6624 50.5658 31.6296 50.5658 31.5893V29.5906L50.5633 29.5956Z" fill="white"/>
<path d="M44.4537 27.1255H44.1311V32.6605H44.4537V27.1255Z" fill="white"/>
<path d="M69.4064 4.38077C69.3812 4.27491 69.293 4.1993 69.1796 4.20434C62.8456 4.41102 56.7234 11.3247 53.5299 15.5969C52.9073 14.6694 51.8286 13.0613 51.8135 13.0386C51.448 12.5244 50.8557 12.2195 50.2281 12.2195C49.1569 12.2195 48.2848 13.0915 48.2848 14.1653C48.2848 14.566 48.4058 14.9517 48.6351 15.2743L51.8664 20.1111C52.2268 20.6782 52.8393 21.0185 53.5097 21.0185C54.1197 21.0185 54.7044 20.7236 55.0699 20.2295C55.1102 20.1817 55.1455 20.1237 55.1758 20.0682C55.201 20.0279 55.8765 18.8609 56.1865 18.2837C60.2218 10.7929 66.3591 5.93591 69.2804 4.63534C69.3787 4.59249 69.4341 4.48411 69.4089 4.37825L69.4064 4.38077Z" fill="white"/>
<path d="M60.7687 12.9324C60.4083 13.0307 60.1965 13.4038 60.2948 13.7642C60.4587 14.3615 60.5419 14.9841 60.5419 15.6117C60.5419 19.4479 57.4215 22.5682 53.5853 22.5682C49.7492 22.5682 46.6288 19.4479 46.6288 15.6117C46.6288 11.7755 49.7492 8.65518 53.5853 8.65518C54.8254 8.65518 56.0428 8.98536 57.1039 9.61044C57.4265 9.79947 57.8399 9.69109 58.0289 9.37099C58.218 9.04837 58.1096 8.63501 57.7895 8.44598C56.5192 7.69991 55.0649 7.3042 53.5853 7.3042C49.0031 7.3042 45.2778 11.032 45.2778 15.6117C45.2778 20.1914 49.0056 23.9192 53.5853 23.9192C58.165 23.9192 61.8928 20.1914 61.8928 15.6117C61.8928 14.8631 61.7945 14.1221 61.5979 13.4063C61.4996 13.0459 61.1266 12.8341 60.7662 12.9324H60.7687Z" fill="white"/>
</g>
<defs>
<linearGradient id="paint0_linear_581_1588" x1="11.3422" y1="42.9187" x2="61.1821" y2="-6.91871" gradientUnits="userSpaceOnUse">
<stop stop-color="#F1662B"/>
<stop offset="0.29" stop-color="#E25529"/>
<stop offset="0.68" stop-color="#D44727"/>
<stop offset="1" stop-color="#D04227"/>
</linearGradient>
<clipPath id="clip0_581_1588">
<rect width="72.5243" height="36" fill="white"/>
</clipPath>
</defs>
</svg>
