<?xml version="1.0" encoding="utf-8"?>
<!-- Generator: Adobe Illustrator 28.0.0, SVG Export Plug-In . SVG Version: 6.00 Build 0)  -->
<svg version="1.1" id="Layer_1" xmlns="http://www.w3.org/2000/svg" xmlns:xlink="http://www.w3.org/1999/xlink" x="0px" y="0px"
	 viewBox="0 0 36 36" style="enable-background:new 0 0 36 36;" xml:space="preserve">
<style type="text/css">
	.st0{fill:none;stroke:#FFFFFF;stroke-miterlimit:10;}
	.st1{fill:#FFFFFF;}
</style>
<path class="st0" d="M33.5,18c0,8.6-6.9,15.5-15.5,15.5C9.4,33.5,2.5,26.6,2.5,18C2.5,9.4,9.4,2.5,18,2.5C26.6,2.5,33.5,9.4,33.5,18
	z"/>
<g>
	<path class="st1" d="M21.8,9.5h-7.6c-2.6,0-4.7,2.1-4.7,4.7v7.6c0,2.6,2.1,4.7,4.7,4.7h7.6c2.6,0,4.7-2.1,4.7-4.7v-7.6
		C26.5,11.6,24.4,9.5,21.8,9.5z M25,21.8c0,1.8-1.4,3.2-3.2,3.2h-7.6c-1.8,0-3.2-1.4-3.2-3.2v-7.6c0-1.8,1.4-3.2,3.2-3.2h7.6
		c1.8,0,3.2,1.4,3.2,3.2L25,21.8L25,21.8z"/>
	<path class="st1" d="M18,13.6c-2.4,0-4.4,2-4.4,4.4c0,2.4,2,4.4,4.4,4.4s4.4-2,4.4-4.4C22.4,15.6,20.4,13.6,18,13.6z M18,20.9
		c-1.6,0-2.9-1.3-2.9-2.9c0-1.6,1.3-2.9,2.9-2.9s2.9,1.3,2.9,2.9C20.9,19.6,19.6,20.9,18,20.9z"/>
	<path class="st1" d="M22.6,12.3c-0.3,0-0.6,0.1-0.8,0.3c-0.2,0.2-0.3,0.5-0.3,0.8c0,0.3,0.1,0.6,0.3,0.8c0.2,0.2,0.5,0.3,0.8,0.3
		c0.3,0,0.6-0.1,0.8-0.3c0.2-0.2,0.3-0.5,0.3-0.8c0-0.3-0.1-0.6-0.3-0.8C23.1,12.4,22.9,12.3,22.6,12.3z"/>
</g>
</svg>
