<?xml version="1.0" encoding="utf-8"?>
<!-- Generator: Adobe Illustrator 28.0.0, SVG Export Plug-In . SVG Version: 6.00 Build 0)  -->
<svg version="1.1" id="Layer_2_00000152253832690490264200000006084583429335410064_"
	 xmlns="http://www.w3.org/2000/svg" xmlns:xlink="http://www.w3.org/1999/xlink" x="0px" y="0px" viewBox="0 0 164.1 174.6"
	 style="enable-background:new 0 0 164.1 174.6;" xml:space="preserve">
<g id="RIGHT_SIDE">
	<g id="NXT_Logo">
		<g>
			<path d="M117.3,174.5c-0.4,0.1-0.6,0-0.6-0.4c0-1.6,0-3.2,0-4.8c0.4-0.2,0.6-0.1,0.7,0.3c0.3,0.9,0.7,1.8,1,2.7
				c0.1,0.1,0.1,0.3,0.3,0.4c0-1.1,0-2.2,0-3.4c0.2,0,0.3,0,0.5,0v5.3c-0.3,0.2-0.5,0-0.7-0.3c-0.4-1.1-0.8-2.1-1.3-3.1L117.3,174.5
				L117.3,174.5z"/>
			<path d="M81.5,174.5c-0.4,0.2-0.6,0-0.7-0.3c-0.4-1.1-0.8-2.1-1.3-3.1c0,1,0,2,0,3c0,0.4-0.1,0.6-0.5,0.4c0-1.7,0-3.5,0-5.2
				c0.3-0.1,0.5,0,0.7,0.3c0.3,0.9,0.7,1.7,1,2.6c0.1,0.2,0.1,0.3,0.3,0.5c0-1.1,0-2.3,0-3.4c0.1,0,0.1-0.1,0.2-0.1
				c0.1,0.1,0.4,0.2,0.4,0.4C81.5,171.2,81.5,172.8,81.5,174.5L81.5,174.5z"/>
			<path d="M94.4,174.6c0.2,0,0.3,0,0.5,0c0-0.7,0-1.4,0-2.1c0.5-0.2,0.8,0,0.9,0.5c0.1,0.4,0.3,0.9,0.4,1.3
				c0.1,0.4,0.3,0.5,0.7,0.3c-0.3-0.7-0.5-1.4-0.8-2.1c0.6-0.6,0.9-1.9,0.5-2.6c-0.6-0.9-1.5-0.4-2.3-0.6
				C94.4,171,94.4,172.8,94.4,174.6z M95,169.7c0.4,0.1,1,0.1,1.1,0.3c0.2,0.4,0.2,1,0.1,1.4c-0.1,0.3-0.7,0.3-1.2,0.5L95,169.7
				L95,169.7z"/>
			<path d="M60.7,174.5c0.4,0.1,0.5,0,0.5-0.4c0-0.6,0-1.1,0-1.7c0.5-0.2,0.8,0,0.9,0.4c0.1,0.4,0.3,0.9,0.5,1.3
				c0.1,0.4,0.3,0.5,0.7,0.3c-0.3-0.7-0.5-1.5-0.8-2.2c0.6-0.5,0.9-1.7,0.5-2.4c-0.5-1-1.5-0.5-2.3-0.7
				C60.7,171,60.7,172.8,60.7,174.5L60.7,174.5z M61.2,169.7c0.4,0.1,1,0.1,1.1,0.4c0.2,0.4,0.2,1,0,1.4c-0.1,0.2-0.7,0.3-1.2,0.5
				V169.7z"/>
			<path d="M57.8,171.9c0-0.6,0-1.1,0-1.6c-0.1-0.8-0.5-1.1-1.3-1.1c-0.8,0-1.2,0.3-1.2,1.1c0,1.1,0,2.1,0,3.2
				c0,0.8,0.5,1.1,1.3,1.1c0.8,0,1.2-0.4,1.2-1.1C57.8,173,57.8,172.4,57.8,171.9L57.8,171.9L57.8,171.9z M57.2,173.4
				c0,0.4-0.2,0.7-0.7,0.7c-0.5,0-0.7-0.2-0.7-0.7c0-1,0-2,0-3.1c0-0.4,0.2-0.6,0.6-0.6c0.4,0,0.7,0.2,0.7,0.6c0,0.5,0,1,0,1.5l0,0
				C57.2,172.4,57.2,172.9,57.2,173.4L57.2,173.4z"/>
			<path d="M111.4,171.9c0,0.6,0,1.2,0,1.8c0.1,0.7,0.4,1,1.2,1c0.8,0,1.2-0.3,1.3-1c0.1-1.2,0.1-2.4,0-3.6c0-0.7-0.5-0.9-1.3-0.9
				c-0.7,0-1.1,0.3-1.1,1C111.3,170.7,111.4,171.3,111.4,171.9L111.4,171.9L111.4,171.9z M111.9,170.3c0-0.4,0.2-0.6,0.7-0.6
				c0.4,0,0.7,0.1,0.7,0.6c0,1.1,0,2.1,0,3.2c0,0.4-0.3,0.6-0.7,0.6c-0.4,0-0.6-0.2-0.6-0.6c0-0.5,0-1,0-1.5
				C111.9,171.4,111.9,170.9,111.9,170.3z"/>
			<path d="M71,172.6c0,0.3,0,0.5,0,0.8c0,0.4,0.2,0.7,0.7,0.7c0.4,0,0.6-0.3,0.6-0.6c0.1-0.6-0.1-1-0.6-1.2
				c-0.2-0.1-0.4-0.2-0.5-0.3c-0.7-0.4-1-1.6-0.5-2.3c0.3-0.5,0.9-0.5,1.4-0.4c0.5,0.1,0.7,0.4,0.8,0.8c0,0.3,0.1,0.6,0,0.9
				c0,0.1-0.2,0.2-0.3,0.3c-0.1-0.1-0.2-0.2-0.2-0.3c-0.1-0.2,0-0.4,0-0.6c0-0.4-0.2-0.6-0.6-0.6c-0.4,0-0.6,0.2-0.6,0.6
				c-0.1,0.5,0,0.9,0.5,1.1c0.2,0.1,0.3,0.2,0.5,0.3c0.8,0.5,1.1,1.5,0.7,2.3c-0.3,0.5-0.8,0.6-1.3,0.6c-0.5,0-0.9-0.2-1-0.7
				c-0.1-0.4-0.1-0.8-0.1-1.1c0-0.1,0.3-0.2,0.4-0.3C70.9,172.5,71,172.6,71,172.6L71,172.6z"/>
			<path d="M45.5,172.4c0,0.5,0,0.8,0.1,1.1c0,0.4,0.3,0.6,0.7,0.6c0.4,0,0.5-0.2,0.6-0.5c0.1-0.7,0-1-0.6-1.4
				c-0.2-0.1-0.3-0.2-0.4-0.2c-0.8-0.4-1.1-1.4-0.7-2.2c0.3-0.6,0.8-0.6,1.3-0.6c0.5,0,0.8,0.3,0.9,0.8c0.1,0.3,0.1,0.6,0,1
				c0,0.1-0.2,0.2-0.3,0.3c-0.1-0.1-0.2-0.2-0.2-0.3c0-0.2,0-0.4,0-0.6c0-0.4-0.2-0.6-0.6-0.6c-0.4,0-0.6,0.2-0.6,0.6
				c-0.1,0.5,0,0.9,0.6,1.1c0.2,0.1,0.3,0.2,0.4,0.2c0.8,0.5,1.1,1.5,0.7,2.3c-0.3,0.5-0.8,0.6-1.3,0.5c-0.5,0-0.9-0.2-1-0.7
				c-0.1-0.4-0.1-0.8-0.1-1.1C45,172.7,45.3,172.6,45.5,172.4z"/>
			<path d="M84.4,169.2h0.5c0,0.1,0,0.2,0,0.3c0,1.3,0,2.5,0,3.8c0,0.4,0.1,0.7,0.6,0.8c0.5,0,0.7-0.2,0.7-0.8c0-1.1,0-2.2,0-3.3
				c0-0.2,0-0.4,0-0.7c0.4-0.2,0.6-0.1,0.6,0.4c0,1.2,0,2.5,0,3.7c0,1-0.6,1.4-1.6,1.3c-0.5-0.1-0.9-0.4-0.9-0.9
				C84.4,172.2,84.4,170.8,84.4,169.2L84.4,169.2z"/>
			<path d="M52.5,170.1c-0.2-0.8-1.2-1.1-2.4-0.8c0,1.7,0,3.5,0,5.2h0.5c0-0.7,0-1.4,0-2.1C52.5,172.2,52.9,171.7,52.5,170.1z
				 M50.7,169.7c0.5,0.1,1.1,0.1,1.2,0.4c0.2,0.4,0.2,1.1,0,1.5c-0.1,0.2-0.7,0.3-1.2,0.4C50.7,171.1,50.7,170.5,50.7,169.7
				L50.7,169.7z"/>
			<path d="M66.5,169.8c-0.3,0-0.6-0.1-0.9-0.1c-0.1-0.4,0-0.5,0.4-0.5c0.6,0,1.3,0,2,0c0,0.2,0,0.3,0.1,0.5c-0.3,0-0.6,0.1-0.9,0.1
				c0,1,0,1.9,0,2.8c0,0.5,0,1,0,1.5c0,0.4-0.1,0.5-0.6,0.4C66.5,172.9,66.5,171.4,66.5,169.8L66.5,169.8z"/>
			<path d="M90.9,174.5h-0.6v-4.7c-0.3,0-0.6,0-0.9-0.1c0-0.2,0-0.3,0-0.5c0.7,0,1.4,0,2.1,0c0.1,0,0.2,0.2,0.4,0.5
				c-0.5,0-0.7,0.1-1.1,0.1C90.9,171.4,90.9,172.9,90.9,174.5L90.9,174.5z"/>
			<path d="M103.8,169.8c-0.3,0-0.6,0-0.9,0c0-0.2,0-0.3-0.1-0.5c0.7,0,1.4,0,2.1,0c0.1,0,0.2,0.2,0.4,0.4c0,0.1-0.1,0.1-0.1,0.1
				c-0.3,0-0.6,0-0.9,0.1c0,1.6,0,3.1,0,4.7c-0.2,0-0.4,0-0.6,0C103.8,172.9,103.8,171.4,103.8,169.8L103.8,169.8z"/>
			<path d="M100.2,174.5c-0.2,0-0.3,0-0.5,0v-5.3c0.2,0,0.3,0,0.5,0C100.2,171,100.2,172.8,100.2,174.5z"/>
			<path d="M107.9,169.2h0.5v5.3c-0.2,0-0.3,0-0.5,0C107.9,172.8,107.9,171,107.9,169.2L107.9,169.2z"/>
		</g>
		<g>
			<path d="M45.3,137H45v-24.5h0.3h3.5h0.3l4.1,12.8v-12.8h0.3h3.5h0.3V137h-0.3h-3.5h-0.3l-4.1-12.8V137h-0.3H45.3z M89,140.1h0.3
				l-4.6,24.5h-0.3h-4.6h-0.3l-4.6-24.5h0.3h3.4h0.3l3.2,17.8l3.2-17.8h0.3L89,140.1L89,140.1z M104,164.6H92.2h-0.3v-24.5h0.3H104
				v3.9v0.3h-8v5.9h4.6v0.3v3.6v0.3H96v6h8v0.3V164.6L104,164.6z"/>
			<polygon points="119.3,131.9 119.3,112.7 118.2,111.3 118.2,111.3 114.1,106.6 45.3,24.5 45,24.2 45,107.1 45.8,107.1 
				55.9,107.1 57.4,107.1 57.4,58.1 58.2,59.2 58.2,59.2 			"/>
			<path d="M157.6,50.2C140.6,8.8,91-11.3,50.1,6.5C5,25.2-13.7,80.8,10.9,122.9c5.9,10.2,13.9,19.1,23.5,26v-9
				c-7.3-6-13.4-13.4-18-21.6l0,0C-11,68.5,25.2,7.1,82.1,7.2c52.8-0.1,89.1,53.6,69.6,102.6l0,0c-5,12.7-13.5,23.8-24.2,31.9
				l4.6,5.5C161.3,125.2,172.2,83.6,157.6,50.2L157.6,50.2z"/>
			<polygon points="85,59.1 119.3,100 119.3,88.7 94.4,59.1 			"/>
			<polygon points="119.3,64.8 114.5,59.1 105.1,59.1 119.3,76 			"/>
			<polygon points="57.4,160.4 49.1,160.4 49.1,140.1 48.8,140.1 45.3,140.1 45,140.1 45,164.6 45.3,164.6 57.4,164.6 			"/>
			<polygon points="115.9,160.4 110.8,160.4 110.8,140.1 110.5,140.1 107.1,140.1 106.8,140.1 106.8,164.6 107.1,164.6 119.4,164.6 
							"/>
			<polygon points="80.2,137 83.6,137 83.9,137 83.9,116.7 88.3,116.7 84.8,112.5 75.9,112.5 75.9,116.4 75.9,116.7 79.9,116.7 
				79.9,137 			"/>
			<polygon points="73.5,112.5 69.5,112.5 69.2,112.5 66.7,119.1 64,112.5 63.8,112.5 59.7,112.5 59.5,112.5 64.3,124.7 59.5,137 
				59.7,137 63.8,137 64,137 66.7,130.4 69.2,137 69.5,137 73.5,137 73.8,137 69,124.7 73.8,112.5 			"/>
			<polygon points="72.2,160.6 72.2,160.4 64.2,160.4 64.2,154.4 68.8,154.4 68.8,154.1 68.8,150.5 68.8,150.2 64.2,150.2 
				64.2,144.2 72.2,144.2 72.2,143.9 72.2,140.1 60.5,140.1 60.2,140.1 60.2,164.6 60.5,164.6 72.2,164.6 			"/>
		</g>
	</g>
</g>
</svg>
